PathFileType	4	(X/Y/Z)	E:/Marcel_BSc/Marcel/30_01_2025/static_00_hjc.trc	
DataRate	CameraRate	NumFrames	NumMarkers	Units	OrigDataRate	OrigDataStartFrame	OrigNumFrames	
200.00	200.00	5	77	mm	200.00	1	158	
Frame#	Time	FHD			LBHD			RBHD			RBAR			LBAR			RASI			RSACR			LSACR			LASI			USACR			C7			CLAV			T10			RSHO			LSHO			LTHI1			LTHI3			LTHI2			LLFC			LMFC			LTIB1			LTIB2			LTIB3			LMMAL			LLMAL			LHEE			LMT1			LMT5			LMT3			RTHI1			RTHI2			RTHI3			RLFC			RMFC			RTIB1			RTIB3			RTIB2			RLMAL			RMMAL			RHEE			RMT5			RMT1			RMT3			LMEP			LLEP			LDUPA			LMUPA			LUUPA			LUL			LRAD			LRFIN			RUL			RRAD			RUFIN			RMEP			RLEP			RMUPA			RDUPA			RUUPA			*59			*60			*61			*62			*63			*64			*65			*66			*67			*68			*69			*70			LAJC			RAJC			LKJC			RKJC			LHJC			RHJC			
		X1	Y1	Z1	X2	Y2	Z2	X3	Y3	Z3	X4	Y4	Z4	X5	Y5	Z5	X6	Y6	Z6	X7	Y7	Z7	X8	Y8	Z8	X9	Y9	Z9	X10	Y10	Z10	X11	Y11	Z11	X12	Y12	Z12	X13	Y13	Z13	X14	Y14	Z14	X15	Y15	Z15	X16	Y16	Z16	X17	Y17	Z17	X18	Y18	Z18	X19	Y19	Z19	X20	Y20	Z20	X21	Y21	Z21	X22	Y22	Z22	X23	Y23	Z23	X24	Y24	Z24	X25	Y25	Z25	X26	Y26	Z26	X27	Y27	Z27	X28	Y28	Z28	X29	Y29	Z29	X30	Y30	Z30	X31	Y31	Z31	X32	Y32	Z32	X33	Y33	Z33	X34	Y34	Z34	X35	Y35	Z35	X36	Y36	Z36	X37	Y37	Z37	X38	Y38	Z38	X39	Y39	Z39	X40	Y40	Z40	X41	Y41	Z41	X42	Y42	Z42	X43	Y43	Z43	X44	Y44	Z44	X45	Y45	Z45	X46	Y46	Z46	X47	Y47	Z47	X48	Y48	Z48	X49	Y49	Z49	X50	Y50	Z50	X51	Y51	Z51	X52	Y52	Z52	X53	Y53	Z53	X54	Y54	Z54	X55	Y55	Z55	X56	Y56	Z56	X57	Y57	Z57	X58	Y58	Z58	X59	Y59	Z59	X60	Y60	Z60	X61	Y61	Z61	X62	Y62	Z62	X63	Y63	Z63	X64	Y64	Z64	X65	Y65	Z65	X66	Y66	Z66	X67	Y67	Z67	X68	Y68	Z68	X69	Y69	Z69	X70	Y70	Z70	X71	Y71	Z71	X72	Y72	Z72	X73	Y73	Z73	X74	Y74	Z74	X75	Y75	Z75	X76	Y76	Z76	X77	Y77	Z77	

1	0.000	103.04972	579.87952	1818.21558	135.27089	521.41479	1803.42334	131.55588	650.64264	1801.61182	1237.75928	1766.98865	37.49623	1247.99231	-457.98203	32.43572	97.70699	723.57800	1048.05518	306.32175	620.39276	1097.86267	301.97504	556.55829	1095.03931	91.56702	458.07147	1038.53491	297.85080	588.38422	1111.67041	277.14462	582.57043	1566.38452	114.36758	583.75635	1531.25232	278.58582	576.79382	1256.65955	238.53966	733.24982	1604.43945	222.21954	416.25308	1594.49438	226.30182	409.85147	707.15790	256.26596	428.23068	651.60181	209.17325	407.80972	643.85315	220.48470	415.06967	524.85724	174.07837	516.98132	506.15652	222.01929	399.94873	276.42624	269.18237	380.84656	275.05423	242.67615	391.68842	214.37764	267.96976	467.96127	92.61246	287.02786	380.42761	83.80661	343.92264	422.24939	39.18987	115.26617	434.39734	41.44490	145.12968	351.93658	26.06069	122.65753	388.90408	36.06316	206.08574	792.31592	674.84454	253.08109	773.22717	671.17047	224.79486	781.15002	613.13306	202.14116	777.74109	529.34015	178.49623	681.50781	508.57281	259.47879	811.23285	277.90207	291.54980	813.88782	219.57965	240.44725	809.71436	214.55193	292.74777	813.66620	75.63847	245.11221	736.37976	71.14628	339.91724	765.43835	30.70411	173.10828	862.72552	26.10482	109.40781	788.41608	42.52344	134.06436	829.00702	40.12921	159.13277	113.71111	1468.97778	232.17072	115.24381	1508.00793	258.09988	216.40378	1522.31384	225.53062	218.30873	1560.20081	234.54456	280.39621	1564.15479	169.06784	-168.17079	1561.76147	140.24139	-137.44881	1626.86829	166.88045	-236.80664	1655.88989	215.19754	1340.71790	1592.31628	194.82748	1307.19543	1659.36243	225.82271	1393.68408	1682.05640	177.08768	1044.84314	1484.65527	246.55830	1056.75146	1539.62195	245.24734	909.46289	1577.00415	253.14835	969.70892	1564.56213	280.04047	898.01746	1542.05884	116.72600	626.00311	1751.75061	152.42662	613.43298	1734.31580	121.33276	584.19568	1741.33105	78.21107	617.84961	1764.00623	134.80354	532.56610	1724.82178	-198.58174	-470.12271	25.22381	2023.06360	-1586.93262	-1462.41699	97.03267	531.75922	1754.38611	1234.06750	-104.71123	39.63499										277.49881	424.19444	88.20953	268.92999	775.02298	73.39238	197.28153	466.02550	515.50688	190.31870	729.62445	518.95648	196.77103	507.31488	1066.78711	202.01437	671.98538	1072.95892 
2	0.005	103.05913	579.86298	1818.20508	135.30391	521.40436	1803.40601	131.56197	650.64087	1801.62048	1237.75854	1766.98340	37.48800	1247.94543	-457.96207	32.33041	98.08080	724.32050	1048.22327	306.35184	620.39764	1097.86230	302.02145	556.54071	1095.04053	91.59228	458.08929	1038.51221	297.88940	588.38611	1111.67395	277.17233	582.57068	1566.37805	114.40079	583.76025	1531.24365	278.60254	576.78430	1256.64966	238.55708	733.25073	1604.43604	222.26529	416.27014	1594.49780	226.32817	409.87283	707.14636	256.29663	428.26337	651.58710	209.19485	407.80966	643.84094	220.49231	415.06982	524.84430	174.02969	516.97186	506.15005	221.98477	399.99689	276.37741	269.19598	380.85818	275.03436	242.67337	391.70029	214.36569	268.02176	467.96637	92.56606	287.02637	380.43771	83.79861	343.91034	422.29688	39.13290	115.26260	434.40213	41.44453	145.13176	351.94113	26.06128	122.66161	388.91489	36.05767	206.11287	792.30743	674.85498	253.09227	773.21539	671.18927	224.89589	781.08722	613.14911	202.12410	777.74567	529.32434	178.49358	681.50128	508.57053	259.48166	811.21826	277.87704	291.39883	813.91046	219.69664	240.44086	809.70874	214.53935	292.74536	813.65265	75.62676	245.10730	736.36847	71.14024	339.87988	765.44684	30.70642	173.11887	862.71088	26.11119	109.39857	788.41754	42.52702	134.07639	828.98352	40.13680	159.15706	113.72929	1468.99072	232.19904	115.25266	1508.02576	258.12943	216.41101	1522.30151	225.65482	218.71999	1560.13782	234.55904	280.40771	1564.16101	169.06914	-168.14783	1561.77649	140.27235	-137.43208	1626.89087	166.90869	-236.79237	1655.90076	215.17520	1340.71960	1592.26587	194.82677	1307.19312	1659.32349	225.84959	1393.70410	1681.99390	177.13374	1044.80420	1484.66052	246.52873	1056.74060	1539.63025	245.24846	909.46405	1577.00098	253.14281	969.70074	1564.52954	280.02600	898.00171	1542.03918	120.00668	631.03186	1747.76819	152.32425	613.42175	1734.34314	121.65184	585.72662	1741.05969	78.22962	617.84918	1763.99585	134.86954	532.52429	1724.82373	-199.22137	-469.68716	24.81667										40.21737	648.86163	1771.59204	1239.42737	-61.71350	57.09583				277.52406	424.20204	88.18233	268.92633	775.01056	73.38350	197.26100	466.02084	515.49718	190.30884	729.62347	518.94743	196.80687	507.31500	1066.77637	202.21632	672.35907	1073.04279 
3	0.010	103.07794	579.83234	1818.19238	135.31140	521.39160	1803.39587	131.56137	650.63464	1801.62207	1237.76062	1766.98792	37.50053	1247.99487	-457.97534	32.42669	97.82052	723.66571	1048.06494	306.37485	620.39752	1097.85620	302.04684	556.54382	1095.05103	91.61749	458.09167	1038.49207	297.76056	588.49542	1111.73291	277.20035	582.57581	1566.39111	114.42041	583.75909	1531.24072	278.61087	576.77338	1256.65039	238.59059	733.24652	1604.43945	222.29962	416.28122	1594.50342	226.35611	409.89594	707.12323	256.30096	428.29492	651.56042	209.22705	407.82870	643.82922	220.50108	415.09073	524.83014	174.02563	516.98920	506.15274	221.95778	400.02936	276.35547	269.19247	380.87067	275.03052	242.66989	391.73102	214.34250	268.00806	467.96484	92.60040	287.03430	380.44510	83.78831	343.96817	422.20920	39.19612	115.27078	434.40311	41.44827	145.13313	351.93982	26.06996	122.66539	388.91360	36.05823	206.14128	792.31757	674.85400	253.08199	773.22198	671.20618	224.90430	781.07550	613.14160	202.10037	777.75317	529.34686	178.48398	681.49951	508.57260	259.45926	811.21893	277.87338	291.38037	813.91327	219.69171	240.42969	809.69556	214.54121	292.75391	813.64337	75.63750	245.10234	736.35931	71.14120	339.94421	765.38879	30.70966	173.11667	862.70886	26.09979	109.40111	788.41254	42.51719	134.06248	828.98944	40.13924	159.18336	113.73824	1468.99829	232.22485	115.26147	1508.03235	258.15582	216.43030	1522.30042	225.68764	218.74609	1560.13196	234.60060	280.43628	1564.15100	169.06961	-168.13824	1561.79053	140.28960	-137.42220	1626.91125	166.72948	-236.93742	1655.81580	215.14597	1340.71826	1592.23071	194.83829	1307.18909	1659.29395	225.85756	1393.69165	1681.94409	177.10201	1044.79688	1484.63293	246.52577	1056.74536	1539.58557	245.25684	909.44965	1576.98547	253.14738	969.69257	1564.49731	280.01767	897.98425	1542.00928	116.87698	626.01013	1751.56934	152.45616	613.38739	1734.31030	122.02944	585.38507	1741.07532	78.23930	617.86377	1763.99963	134.95473	532.49091	1724.81238	-200.65388	-469.64868	23.90273	1235.41516	-221.34927	42.38708																277.52118	424.20497	88.19436	268.92812	775.00134	73.38935	197.26336	466.03996	515.49144	190.29218	729.62634	518.95973	196.83216	507.31775	1066.77155	202.09768	672.03162	1072.96057 
4	0.015	103.07594	579.83008	1818.18628	135.31738	521.38483	1803.38647	131.56892	650.61542	1801.61462	1237.75696	1766.98511	37.49759	1248.00098	-457.98944	32.43594	98.12402	724.32404	1048.23755	306.41669	620.39691	1097.85388	302.08206	556.55231	1095.04163	91.65255	458.10693	1038.47876	297.79547	588.50726	1111.72559	277.22623	582.57715	1566.38965	114.45761	583.75964	1531.23999	278.62802	576.75165	1256.64429	238.59361	733.23639	1604.43738	222.35088	416.29117	1594.50085	226.37923	409.91266	707.12463	256.31342	428.30560	651.55457	209.24744	407.83923	643.81726	220.49982	415.10532	524.81488	174.05202	517.00427	506.13614	221.97600	400.02710	276.33572	269.19312	380.88303	275.01410	242.67075	391.73126	214.34448	268.05475	467.95425	92.58244	287.03497	380.45346	83.78291	344.06430	422.11258	39.24131	115.26497	434.40338	41.44847	145.13503	351.94696	26.07283	122.66321	388.91534	36.06051	206.12538	792.32074	674.84454	253.12231	773.19324	671.18939	224.85527	781.10681	613.15088	202.09966	777.74091	529.36108	178.47258	681.49335	508.57397	259.45612	811.19739	277.87326	291.36447	813.87982	219.69353	240.43205	809.67542	214.53908	292.74213	813.63586	75.63335	245.09135	736.35181	71.12820	340.10852	765.26062	30.70863	173.10971	862.69666	26.11585	109.40662	788.39703	42.52862	134.07547	828.98511	40.12850	159.11116	113.78063	1469.19714	232.23692	115.27071	1508.05200	258.18192	216.45337	1522.29309	225.63164	218.37762	1560.19910	234.63719	280.44791	1564.15479	169.06889	-168.12711	1561.81433	140.30693	-137.40753	1626.93384	166.72961	-236.95198	1655.82800	215.12317	1340.70544	1592.18823	194.85095	1307.18921	1659.26331	225.86487	1393.68091	1681.88843	176.89955	1044.57410	1484.60681	246.52988	1056.74219	1539.55054	245.28461	909.34448	1577.12378	253.17252	969.67383	1564.45386	280.01929	897.96399	1541.97876	116.78014	625.82288	1751.57642	152.60197	613.27991	1734.30786	121.93272	585.41516	1741.07288	78.24810	617.82910	1764.00171	134.94753	532.50885	1724.83887	-201.64388	-469.67572	23.50702				85.42417	535.88324	1759.53271	924.42834	511.31915	573.94440										277.54486	424.20386	88.18268	268.91674	774.99384	73.38078	197.27592	466.05479	515.47551	190.28612	729.61713	518.96753	196.86731	507.32962	1066.76019	202.27036	672.36047	1073.04572 
5	0.020	103.06683	579.82184	1818.18042	135.32695	521.37476	1803.37708	131.57526	650.62097	1801.61719	1237.76001	1766.98486	37.50252	1247.95410	-457.96933	32.32743	97.86620	723.66840	1048.06128	306.45514	620.39215	1097.88257	302.12152	556.54309	1095.04724	91.67519	458.11050	1038.45642	297.82852	588.49341	1111.73145	277.25653	582.58850	1566.38208	114.49146	583.75958	1531.23828	278.65619	576.72974	1256.64038	238.61513	733.23969	1604.43225	222.38582	416.29898	1594.51233	226.38954	409.91336	707.11182	256.32617	428.32474	651.53540	209.27155	407.85962	643.80359	220.50447	415.11664	524.80774	174.06853	517.01355	506.12408	221.97421	400.03607	276.34860	269.17990	380.89017	275.00259	242.66866	391.74530	214.32831	268.07349	467.99155	92.51934	287.03738	380.45438	83.77692	344.06876	422.10440	39.23339	115.26630	434.40390	41.44651	145.13461	351.94781	26.07469	122.66094	388.91248	36.06844	206.12115	792.31830	674.85498	253.14833	773.15411	671.18323	224.86446	781.10364	613.19257	202.07826	777.75134	529.35632	178.45705	681.49634	508.57877	259.46317	811.17981	277.87579	291.35468	813.87738	219.69154	240.42007	809.67639	214.53886	292.73645	813.62689	75.62791	245.08070	736.34473	71.12676	339.89871	765.40167	30.69830	173.10205	862.70764	26.12416	109.40533	788.40198	42.52601	134.06470	828.98547	40.12980	159.11816	113.79137	1469.21863	232.31293	115.20802	1508.14966	258.21976	216.44398	1522.31030	225.64984	218.36304	1560.20850	234.66603	280.44785	1564.17529	169.08815	-168.13260	1561.83191	140.32907	-137.40297	1626.96094	166.75816	-236.96629	1655.85938	215.11790	1340.71252	1592.15161	194.85085	1307.18176	1659.22571	225.83638	1393.68774	1681.88123	177.10913	1044.73743	1484.58398	246.55170	1056.72302	1539.52612	245.29491	909.41046	1576.93188	253.18808	969.67273	1564.40356	280.02795	897.94061	1541.93994	116.75186	626.08362	1750.17908				121.82001	584.92181	1741.16370	78.29497	617.80957	1763.99365	134.94205	532.53375	1724.84241	-199.80652	-469.47632	24.60634				80.85802	537.43243	1760.64954													277.55544	424.22296	88.14813	268.90858	774.98581	73.37733	197.28650	466.06509	515.46591	190.26765	729.62384	518.96754	196.89836	507.32680	1066.75183	202.16067	672.03027	1072.97192 
